<svg xmlns="http://www.w3.org/2000/svg" viewBox="0 0 320 200" font-family="-apple-system, system-ui, sans-serif">
  <rect width="320" height="200" fill="#1b1b1d"/>
  <text x="24" y="32" fill="#8a8a90" font-size="11" font-weight="600" letter-spacing="0.5">MY ISSUES</text>
  <g font-size="12">
    <g transform="translate(0,44)">
      <rect x="20" y="0" width="46" height="18" rx="4" fill="#1d3a5f"/>
      <text x="43" y="13" fill="#4c9aff" font-size="10" font-weight="600" text-anchor="middle">PROJ-8</text>
      <text x="76" y="13" fill="#f2f2f5">Fix token refresh race</text>
      <circle cx="290" cy="9" r="4" fill="#ff453a"/>
    </g>
    <line x1="20" y1="72" x2="300" y2="72" stroke="#2c2c2e"/>
    <g transform="translate(0,84)">
      <rect x="20" y="0" width="46" height="18" rx="4" fill="#1d3a5f"/>
      <text x="43" y="13" fill="#4c9aff" font-size="10" font-weight="600" text-anchor="middle">PROJ-6</text>
      <text x="76" y="13" fill="#f2f2f5">Agenda spacing polish</text>
      <circle cx="290" cy="9" r="4" fill="#ff9f0a"/>
    </g>
    <line x1="20" y1="112" x2="300" y2="112" stroke="#2c2c2e"/>
    <g transform="translate(0,124)">
      <rect x="20" y="0" width="46" height="18" rx="4" fill="#1d3a5f"/>
      <text x="43" y="13" fill="#4c9aff" font-size="10" font-weight="600" text-anchor="middle">PROJ-5</text>
      <text x="76" y="13" fill="#f2f2f5">Add pack previews</text>
      <circle cx="290" cy="9" r="4" fill="#30d158"/>
    </g>
    <line x1="20" y1="152" x2="300" y2="152" stroke="#2c2c2e"/>
    <g transform="translate(0,164)">
      <rect x="20" y="0" width="46" height="18" rx="4" fill="#1d3a5f"/>
      <text x="43" y="13" fill="#4c9aff" font-size="10" font-weight="600" text-anchor="middle">PROJ-2</text>
      <text x="76" y="13" fill="#f2f2f5">Notifier dedupe</text>
      <circle cx="290" cy="9" r="4" fill="#30d158"/>
    </g>
  </g>
</svg>
